<svg xmlns="http://www.w3.org/2000/svg" viewBox="0 0 48 48" width="48" height="48">
  <defs>
    <linearGradient id="pianoGradient" x1="0%" y1="0%" x2="100%" y2="100%">
      <stop offset="0%" style="stop-color:#667eea;stop-opacity:1" />
      <stop offset="100%" style="stop-color:#764ba2;stop-opacity:1" />
    </linearGradient>
  </defs>
  
  <!-- Piano body -->
  <rect x="4" y="8" width="40" height="32" fill="url(#pianoGradient)" rx="4" ry="4"/>
  
  <!-- White keys -->
  <rect x="6" y="12" width="5" height="24" fill="#fff" rx="1"/>
  <rect x="12" y="12" width="5" height="24" fill="#fff" rx="1"/>
  <rect x="18" y="12" width="5" height="24" fill="#fff" rx="1"/>
  <rect x="24" y="12" width="5" height="24" fill="#fff" rx="1"/>
  <rect x="30" y="12" width="5" height="24" fill="#fff" rx="1"/>
  <rect x="36" y="12" width="5" height="24" fill="#fff" rx="1"/>
  
  <!-- Black keys -->
  <rect x="8.5" y="12" width="3" height="16" fill="#333" rx="1"/>
  <rect x="14.5" y="12" width="3" height="16" fill="#333" rx="1"/>
  <rect x="26.5" y="12" width="3" height="16" fill="#333" rx="1"/>
  <rect x="32.5" y="12" width="3" height="16" fill="#333" rx="1"/>
  <rect x="38.5" y="12" width="3" height="16" fill="#333" rx="1"/>
</svg>
