<svg xmlns="http://www.w3.org/2000/svg" viewBox="0 0 48 48" width="48" height="48">
  <defs>
    <linearGradient id="practiceGradient" x1="0%" y1="0%" x2="100%" y2="100%">
      <stop offset="0%" style="stop-color:#4facfe;stop-opacity:1" />
      <stop offset="100%" style="stop-color:#00f2fe;stop-opacity:1" />
    </linearGradient>
  </defs>
  
  <!-- Headphones -->
  <path d="M12 20 Q12 12 20 12 L28 12 Q36 12 36 20 L36 32 Q36 40 28 40 L20 40 Q12 40 12 32 Z" fill="url(#practiceGradient)"/>
  
  <!-- Headband -->
  <path d="M20 12 Q24 8 28 12" stroke="#fff" stroke-width="3" fill="none"/>
  
  <!-- Microphone -->
  <rect x="22" y="24" width="4" height="8" fill="#fff" rx="2"/>
  <circle cx="24" cy="32" r="3" fill="#fff"/>
  
  <!-- Sound waves -->
  <path d="M40 16 Q44 16 44 20 Q44 24 40 24" stroke="#4facfe" stroke-width="2" fill="none"/>
  <path d="M42 12 Q48 12 48 18 Q48 24 42 24" stroke="#4facfe" stroke-width="2" fill="none"/>
</svg>
