<svg xmlns="http://www.w3.org/2000/svg" viewBox="0 0 48 48" width="48" height="48">
  <defs>
    <linearGradient id="theoryGradient" x1="0%" y1="0%" x2="100%" y2="100%">
      <stop offset="0%" style="stop-color:#f093fb;stop-opacity:1" />
      <stop offset="100%" style="stop-color:#f5576c;stop-opacity:1" />
    </linearGradient>
  </defs>
  
  <!-- Book background -->
  <rect x="8" y="6" width="32" height="36" fill="url(#theoryGradient)" rx="4" ry="4"/>
  
  <!-- Book pages -->
  <rect x="10" y="8" width="28" height="32" fill="#fff" rx="2" ry="2"/>
  
  <!-- Musical staff lines -->
  <line x1="14" y1="16" x2="34" y2="16" stroke="#333" stroke-width="1"/>
  <line x1="14" y1="20" x2="34" y2="20" stroke="#333" stroke-width="1"/>
  <line x1="14" y1="24" x2="34" y2="24" stroke="#333" stroke-width="1"/>
  <line x1="14" y1="28" x2="34" y2="28" stroke="#333" stroke-width="1"/>
  
  <!-- Notes on staff -->
  <circle cx="18" cy="16" r="2" fill="#333"/>
  <circle cx="22" cy="20" r="2" fill="#333"/>
  <circle cx="26" cy="24" r="2" fill="#333"/>
  <circle cx="30" cy="28" r="2" fill="#333"/>
  
  <!-- Note stems -->
  <line x1="20" y1="16" x2="20" y2="12" stroke="#333" stroke-width="2"/>
  <line x1="24" y1="20" x2="24" y2="16" stroke="#333" stroke-width="2"/>
  <line x1="28" y1="24" x2="28" y2="20" stroke="#333" stroke-width="2"/>
  <line x1="32" y1="28" x2="32" y2="24" stroke="#333" stroke-width="2"/>
</svg>
